PathFileType	4	(X/Y/Z)	C:\Users\WrightLab\Desktop\Jo\P5V28.trc
DataRate	CameraRate	NumFrames	NumMarkers	Units	OrigDataRate	OrigDataStartFrame	OrigNumFrames
100.00	100.00	       19	19	mm	100.00	804	       918
Frame#	Time	Headset_Front			Headset_Back			Headset_Left			Headset_Right			Left_Shoulder			Right_Shoulder			Sternum			C7			Left Elbow			Right Elbow			Left Wrist			Right Wrist			Left ASIS			Right ASIS			S2			Left Knee			Right Knee			Left Ankle			Right Ankle			
		X1	Y1	Z1	X2	Y2	Z2	X3	Y3	Z3	X4	Y4	Z4	X5	Y5	Z5	X6	Y6	Z6	X7	Y7	Z7	X8	Y8	Z8	X9	Y9	Z9	X10	Y10	Z10	X11	Y11	Z11	X12	Y12	Z12	X13	Y13	Z13	X14	Y14	Z14	X15	Y15	Z15	X16	Y16	Z16	X17	Y17	Z17	X18	Y18	Z18	X19	Y19	Z19	

804	8.030				-471.05292	1668.90405	-226.63307							-142.69719	1505.92212	-364.47366	-538.40448	1415.33142	-296.81290	-320.73126	1300.03723	-260.07690	-378.03067	1510.12329	-454.81873	-44.27597	1217.73022	-386.60330	-649.36176	1148.88782	-338.53146	-67.54546	992.23254	-273.98904	-647.87091	1017.35803	-139.68643	-154.46562	924.25110	-269.47052	-440.46164	920.10480	-209.53532	-305.87665	969.45129	-505.39944	-148.75470	484.23199	-281.19891	-477.80667	497.83591	-204.93283	-160.08858	133.39177	-599.61969	-402.93182	89.45800	-237.90273	
805	8.040				-468.90173	1668.42419	-232.13319							-140.87579	1504.54797	-369.21964	-536.45764	1415.41675	-302.72891	-319.73843	1299.38855	-265.57269	-376.03723	1509.61255	-460.33978	-43.36035	1216.65955	-389.21506	-647.28381	1148.70435	-345.55307	-67.59030	992.32959	-277.48828	-646.12891	1017.93030	-146.39957	-153.90393	923.30768	-273.66559	-440.33963	920.06952	-214.02679	-303.60092	969.64746	-512.54492	-147.74814	483.77914	-286.71851	-477.82999	498.45572	-208.96855	-162.44920	129.72562	-603.10400	-403.14029	89.26512	-238.15532	
806	8.050				-466.65540	1667.89343	-237.32628							-139.30916	1503.66028	-374.09412	-534.90039	1415.03625	-308.86053	-317.82663	1298.85645	-270.29697	-373.62753	1508.97815	-465.94675	-39.98051	1217.42395	-392.72699	-645.37799	1148.48755	-352.27451	-66.19862	991.45068	-281.26593	-644.75531	1017.08911	-153.97993	-153.14661	923.38477	-278.00595	-438.98447	920.35651	-218.15796	-302.77191	968.77924	-516.65234	-148.28595	482.79892	-291.60797	-478.47116	497.90781	-213.09099	-163.64674	126.25660	-605.78333	-403.37637	89.05990	-238.14177	
807	8.060				-464.34232	1667.22559	-242.60164							-136.88553	1503.39941	-378.48236	-532.47595	1414.21777	-314.21997	-316.91318	1298.26465	-275.36404	-371.62460	1508.20581	-471.71228	-38.78675	1214.17358	-396.59680	-643.39685	1147.69849	-358.48578	-66.28766	990.64832	-285.26971	-642.53833	1017.54248	-160.69427	-151.86627	922.21027	-282.67816	-438.00714	918.95947	-224.11060	-300.81287	967.71075	-521.25470	-147.77194	481.67804	-297.10507	-478.14160	497.16876	-217.47237	-165.43132	122.46664	-609.27521	-403.49533	89.01778	-238.21019	
808	8.070	-257.57471	1712.53809	-507.48022	-462.04166	1666.58118	-248.59610							-134.82739	1502.19482	-383.76746	-531.63837	1414.27344	-320.45258	-315.02319	1297.08008	-280.21512	-369.45313	1507.39990	-477.05240	-36.06972	1213.92249	-401.24814	-641.38696	1147.19617	-365.58246	-63.96001	990.89917	-289.32361	-640.42871	1016.86383	-166.77571	-151.87036	921.49548	-288.43411	-437.01483	918.31567	-230.52850	-297.95676	967.29749	-529.40851	-147.72551	480.04327	-303.70474	-477.99963	497.10464	-221.88695	-165.70581	119.53817	-611.54919	-403.61823	89.00074	-238.25653	
809	8.080	-255.46187	1711.87170	-512.79816	-459.77933	1666.09070	-254.44321							-132.66974	1501.65588	-388.88367	-529.65576	1413.63525	-326.23355	-313.04391	1297.31738	-284.32895	-366.90131	1506.56897	-482.39706	-33.96561	1212.68909	-407.55328	-639.80908	1146.98975	-371.89340	-62.83316	989.92700	-294.18634	-638.92523	1016.68298	-173.84335	-150.24367	920.90918	-292.94031	-435.94949	918.20270	-236.59271	-295.59213	966.43311	-535.23108	-147.16815	479.62759	-309.56641	-477.52939	496.99582	-226.73738	-166.92818	115.70512	-615.07977	-403.94958	88.74801	-238.83835	
810	8.090	-253.41110	1711.56274	-518.90649	-457.45969	1665.39465	-259.77228							-130.38882	1500.80688	-394.13605	-526.96521	1412.80481	-332.73447	-311.34814	1296.89966	-290.73206	-364.11292	1505.68250	-487.75864	-32.08667	1212.19849	-411.61380	-637.95160	1146.33447	-379.03616	-61.42225	989.85986	-298.18979	-636.90411	1016.43781	-180.52646	-149.01578	920.54089	-298.32901	-435.38770	917.04095	-241.98518	-293.55786	965.88605	-541.48309	-146.41946	478.79385	-316.72336	-477.90640	496.94949	-232.70053	-165.72255	112.98450	-617.28601	-404.09235	88.76355	-238.90215	
811	8.100	-251.22011	1710.67517	-524.44061	-455.09769	1664.59631	-265.30505							-127.84037	1500.38635	-398.69543	-526.35699	1412.38916	-338.91171	-309.12811	1295.88245	-297.16583	-362.02847	1505.53491	-493.87595	-30.25762	1211.51160	-415.84256	-635.79718	1145.96521	-385.42123	-59.54351	989.81262	-302.63898	-635.70233	1016.23059	-187.71169	-147.55446	919.55194	-304.07251	-433.62405	915.55872	-248.40718	-292.63504	964.10699	-545.30597	-145.68074	478.31122	-323.54587	-477.13144	496.61447	-237.03152	-166.21613	109.20437	-619.77209	-404.23209	88.76824	-238.98587	
812	8.110	-249.05397	1710.27698	-530.34607	-452.70316	1663.95081	-270.68665							-126.13727	1499.35962	-403.86938	-523.05457	1410.93225	-344.35889	-308.05475	1295.46436	-302.23105	-359.52341	1504.82532	-499.52188	-28.48517	1210.51929	-419.61841	-634.26178	1146.01770	-392.95206	-60.12695	990.29523	-306.68317	-633.35175	1015.47504	-194.47566	-146.04968	918.82037	-309.04761	-432.56491	915.42816	-255.28584	-289.84094	964.49249	-554.68231	-144.79811	477.42841	-330.61594	-475.68509	496.26370	-242.55251	-166.58737	105.75620	-621.86432	-404.36414	88.73985	-239.07321	
813	8.120	-246.81227	1709.76685	-535.91595	-450.36154	1663.51404	-276.14221							-123.65897	1498.64697	-408.95395	-521.96667	1411.21497	-351.29349	-305.42078	1294.10730	-308.58875	-356.85477	1504.38062	-504.75284	-26.68457	1209.42737	-423.48016	-633.20605	1146.82373	-400.14151	-58.64690	990.13330	-313.41544	-631.51526	1014.78430	-201.28506	-144.96902	918.19543	-313.40057	-430.91034	914.88867	-260.61258	-287.90698	963.99652	-560.90411	-143.02626	476.69183	-337.95142	-474.16791	495.43472	-247.79788	-166.77702	102.69198	-624.10144	-404.61517	88.64843	-239.51810	
814	8.130	-244.49719	1709.27075	-541.01764	-448.03448	1663.07031	-282.29599							-121.00472	1497.62036	-413.86578	-519.76788	1410.75354	-357.46005	-303.51581	1293.75208	-314.01123	-354.16299	1504.04114	-510.31961	-23.82953	1209.18628	-430.44006	-630.11438	1145.28772	-406.54898	-56.64660	988.54712	-316.31110	-629.39752	1015.18658	-207.42543	-143.10706	916.94806	-319.81631	-430.01776	913.91174	-269.05191	-286.93967	963.58093	-568.22943	-142.26416	476.62802	-345.37076	-472.39896	495.33224	-253.31210	-167.43114	100.04192	-626.18811	-404.77444	88.68713	-239.60353	
815	8.140	-242.10001	1708.68298	-546.84338	-445.67502	1662.82544	-288.58096							-118.76440	1497.18811	-419.07193	-516.71899	1410.27966	-363.34537	-301.33850	1293.19446	-319.64859	-351.53653	1503.89160	-516.02881	-21.72764	1208.35657	-436.81024	-628.41376	1145.31274	-412.83099	-55.18645	988.13373	-320.46902	-627.52094	1015.02216	-214.85080	-141.14731	916.53650	-326.34189	-428.30737	913.31281	-275.06335	-285.07303	963.16467	-574.41919	-141.86520	476.49564	-354.00101	-469.47577	494.56546	-260.02631	-167.41769	97.49287	-627.93011	-405.25095	88.83949	-239.69882	
816	8.150	-239.70995	1707.77490	-553.07660	-443.22202	1662.52026	-294.06067							-116.32945	1497.02515	-424.81400	-514.00476	1409.81104	-369.54904	-298.87341	1292.42896	-326.70483	-348.41925	1503.51624	-521.45239	-19.41471	1209.32166	-441.70395	-626.25867	1145.47961	-419.92935	-53.24081	987.70288	-326.52890	-625.08167	1014.94196	-220.76094	-139.22128	916.04480	-333.68936	-426.76355	912.18329	-283.36615	-283.42538	963.30005	-582.16736	-139.33458	477.81296	-361.46725	-466.85361	494.03482	-266.11700	-168.10249	94.13078	-629.41003	-405.55954	88.74661	-240.20558	
817	8.160	-237.25943	1707.53967	-557.71436	-440.79364	1662.54541	-299.83636							-113.13140	1496.06738	-429.31097	-513.24445	1410.34827	-376.63782	-296.95618	1291.50256	-333.54465	-345.46353	1503.62805	-527.11792	-17.03035	1207.68274	-445.05524	-624.19653	1145.54663	-426.77380	-51.28646	987.62891	-331.70203	-623.90582	1015.47705	-228.16451	-137.33023	914.62488	-339.82513	-425.81277	911.34784	-295.17233	-281.18753	963.89777	-589.20245	-138.32948	477.20737	-368.55475	-463.05359	492.91501	-272.55603	-169.70258	91.29715	-631.35199	-405.87344	88.82005	-240.41003	
818	8.170	-234.92686	1707.48438	-563.43854	-438.44693	1662.58557	-305.82007							-111.24133	1495.53040	-434.35458	-509.35458	1409.54236	-381.82040	-294.79037	1290.98132	-339.01349	-342.77869	1503.48242	-532.14313	-13.85510	1207.68481	-450.43747	-622.49146	1146.26831	-433.76096	-49.97270	987.51794	-339.28217	-621.08362	1014.61285	-235.10947	-135.64172	913.51849	-345.80176	-423.73804	911.85114	-297.74347	-280.36459	963.26801	-595.69464	-136.30614	477.45505	-376.41983	-459.04431	491.72354	-279.27502	-168.44028	89.88858	-632.33319	-406.76538	89.39913	-241.29230	
819	8.180	-232.49196	1706.99402	-569.38770	-436.05981	1662.97095	-311.94464							-109.05377	1494.83606	-438.64157	-507.02966	1409.76904	-387.34537	-293.42493	1289.42615	-344.72330	-340.01590	1503.34570	-537.32947	-11.11609	1207.71570	-456.92993	-620.22607	1146.89294	-439.55258	-47.62243	986.50391	-343.04538	-619.56598	1015.00403	-241.87828	-133.87097	913.16467	-352.16232	-422.12064	910.51013	-306.37320	-279.05112	964.14911	-602.74084	-134.38158	478.63980	-385.07794	-454.10861	489.90170	-286.75052	-169.90195	86.83199	-634.51666	-407.24118	89.40706	-241.92174	
820	8.190	-229.97711	1706.30469	-574.87390	-433.58963	1663.66870	-318.07022							-105.94966	1494.78894	-443.38474	-506.14081	1410.46887	-394.41092	-291.79132	1289.67932	-351.88596	-336.83145	1503.94324	-543.29694	-8.71442	1206.31128	-461.33777	-618.22327	1147.62549	-446.74469	-45.93570	986.94183	-349.25989	-617.78113	1015.57550	-248.74860	-131.37965	912.21497	-359.54410	-420.58560	910.66138	-315.14893	-277.49197	963.97919	-608.27808	-132.00415	479.90805	-393.81842	-449.33722	488.10739	-294.60535	-169.59430	85.35674	-634.69012	-407.96951	89.69913	-243.52251	
821	8.200	-227.47714	1706.01636	-580.34222	-431.14066	1664.32764	-323.93716							-103.41091	1494.09436	-448.63998	-502.84940	1410.12317	-399.22668	-289.00662	1289.17493	-358.43042	-333.77438	1504.00537	-548.12628	-6.58076	1207.46326	-468.71970	-615.59961	1147.54285	-453.49197	-43.83397	985.51117	-353.74646	-615.92761	1016.69342	-256.46982	-128.71124	911.92981	-367.31067	-419.50211	909.69458	-325.03748	-275.46466	964.72980	-617.84351	-129.52808	481.02603	-401.92535	-443.24167	487.69965	-301.37924	-168.20854	84.88502	-634.56061	-408.47797	89.60747	-244.60754	
822	8.210	-225.08560	1706.05042	-585.19574	-428.73874	1664.81409	-329.70856							-100.76421	1494.33032	-453.07547	-499.91556	1410.54248	-405.53381	-288.07983	1288.73779	-365.56116	-331.12323	1504.24060	-552.55707	-3.65794	1207.96912	-472.37970	-613.44922	1147.59790	-459.42755	-42.10165	985.52991	-360.30829	-614.60718	1017.14331	-262.67578	-126.91991	910.90234	-373.72586	-417.61301	908.71716	-332.98264	-273.99481	965.14960	-623.48572	-127.36700	482.39810	-410.78864	-437.13315	486.38773	-308.99109	-167.78688	84.63004	-634.98529	-409.78195	90.24121	-245.54916	
